<?xml version="1.0" encoding="UTF-8"?>
<svg xmlns="http://www.w3.org/2000/svg" xmlns:xlink="http://www.w3.org/1999/xlink" viewBox="0 0 512 512" width="512px" height="512px">
<g id="surface16736135">
<path style=" stroke:none;fill-rule:evenodd;fill:rgb(100%,100%,100%);fill-opacity:1;" d="M 392.0625 120.0625 C 355.9375 83.9375 307.9375 64 256.8125 64 C 151.4375 64 65.625 149.75 65.625 255.125 C 65.5625 288.8125 74.375 321.6875 91.125 350.6875 L 64 449.75 L 165.375 423.125 C 193.25 438.375 224.75 446.375 256.75 446.4375 L 256.8125 446.4375 C 362.1875 446.4375 447.9375 360.6875 448 255.25 C 448 204.1875 428.125 156.1875 392.0625 120.0625 Z M 256.8125 414.125 L 256.75 414.125 C 228.25 414.125 200.25 406.4375 175.875 392 L 170.0625 388.5625 L 109.875 404.3125 L 125.9375 345.6875 L 122.1875 339.6875 C 106.25 314.375 97.875 285.125 97.875 255.125 C 97.875 167.5625 169.1875 96.3125 256.875 96.3125 C 299.3125 96.3125 339.1875 112.875 369.1875 142.875 C 399.1875 172.9375 415.6875 212.8125 415.6875 255.25 C 415.6875 342.875 344.375 414.125 256.8125 414.125 Z M 343.9375 295.125 C 339.1875 292.75 315.6875 281.1875 311.3125 279.625 C 306.9375 278 303.75 277.25 300.5625 282 C 297.375 286.8125 288.25 297.5625 285.4375 300.75 C 282.6875 303.875 279.875 304.3125 275.125 301.9375 C 270.3125 299.5625 254.9375 294.5 236.6875 278.1875 C 222.5 265.5625 212.875 249.875 210.125 245.125 C 207.3125 240.3125 209.8125 237.75 212.1875 235.375 C 214.375 233.25 217 229.8125 219.375 227 C 221.75 224.25 222.5625 222.25 224.1875 219.0625 C 225.75 215.875 224.9375 213.0625 223.75 210.6875 C 222.5625 208.3125 213 184.75 209 175.1875 C 205.125 165.875 201.1875 167.1875 198.25 167 C 195.5 166.875 192.3125 166.875 189.125 166.875 C 185.9375 166.875 180.75 168.0625 176.375 172.875 C 172 177.625 159.6875 189.1875 159.6875 212.6875 C 159.6875 236.1875 176.8125 258.9375 179.1875 262.125 C 181.5625 265.25 212.875 313.5 260.8125 334.1875 C 272.1875 339.125 281.0625 342.0625 288 344.25 C 299.4375 347.875 309.875 347.375 318.125 346.1875 C 327.3125 344.8125 346.375 334.625 350.375 323.4375 C 354.3125 312.3125 354.3125 302.75 353.125 300.75 C 351.9375 298.75 348.75 297.5625 343.9375 295.125 Z M 343.9375 295.125 "/>
</g>
</svg>
