<?xml version="1.0" encoding="UTF-8"?>
<svg xmlns="http://www.w3.org/2000/svg" xmlns:xlink="http://www.w3.org/1999/xlink" viewBox="0 0 480 480" width="480px" height="480px">
<g id="surface16723299">
<path style=" stroke:none;fill-rule:nonzero;fill:rgb(100%,100%,100%);fill-opacity:1;" d="M 240 48 C 133.96875 48 48 133.96875 48 240 C 48 329.96875 109.953125 405.246094 193.472656 426.078125 C 192.574219 423.488281 192 420.480469 192 416.753906 L 192 383.9375 C 184.207031 383.9375 171.152344 383.9375 167.871094 383.9375 C 154.734375 383.9375 143.054688 378.289062 137.390625 367.792969 C 131.105469 356.128906 130.015625 338.289062 114.433594 327.375 C 109.808594 323.742188 113.328125 319.601562 118.65625 320.160156 C 128.496094 322.945312 136.65625 329.695312 144.335938 339.710938 C 151.984375 349.742188 155.585938 352.015625 169.871094 352.015625 C 176.800781 352.015625 187.167969 351.617188 196.929688 350.078125 C 202.175781 336.753906 211.246094 324.480469 222.335938 318.6875 C 158.398438 312.113281 127.886719 280.304688 127.886719 237.121094 C 127.886719 218.527344 135.808594 200.542969 149.265625 185.390625 C 144.847656 170.351562 139.296875 139.679688 150.960938 128 C 179.726562 128 197.121094 146.65625 201.296875 151.695312 C 215.632812 146.785156 231.375 144 247.921875 144 C 264.496094 144 280.304688 146.785156 294.671875 151.726562 C 298.800781 146.71875 316.207031 128 345.039062 128 C 356.753906 139.695312 351.136719 170.496094 346.671875 185.503906 C 360.046875 200.625 367.921875 218.558594 367.921875 237.121094 C 367.921875 280.273438 337.457031 312.0625 273.617188 318.671875 C 291.183594 327.839844 304 353.601562 304 373.007812 L 304 416.753906 C 304 418.417969 303.632812 419.617188 303.441406 421.039062 C 378.257812 394.816406 432 323.777344 432 240 C 432 133.96875 346.03125 48 240 48 Z M 240 48 "/>
</g>
</svg>
